<svg width="174" height="23" viewBox="0 0 174 23" fill="none" xmlns="http://www.w3.org/2000/svg">
<path d="M170.281 12.2656C170.281 9.78125 168.938 8.4375 166.641 8.4375C164.047 8.4375 162.266 10.1406 162.266 12.8594V22.4062H158.844V6.40625H162.266V9.3125C163.266 7.15625 165.359 5.89062 168.172 5.89062C171.719 5.89062 173.719 7.89062 173.719 11.4219V22.4062H170.281V12.2656Z" fill="black"/>
<path d="M136.688 22.4062L131.297 6.40625H134.906L138.688 18.75L142.656 6.40625H145.812L149.625 18.6719L153.375 6.40625H156.844L151.469 22.4062H147.922L144.141 10.2188L140.234 22.4062H136.688Z" fill="black"/>
<path d="M122.016 22.9375C116.766 22.9375 113.781 19.9375 113.781 14.6562V14.1562C113.781 8.85938 116.766 5.875 122.016 5.875C127.281 5.875 130.266 8.85938 130.266 14.1562V14.6562C130.266 19.9375 127.281 22.9375 122.016 22.9375ZM122.031 20.4062C124.891 20.4062 126.766 18.5312 126.766 14.8125V14C126.766 10.2812 124.891 8.40625 122.031 8.40625C119.156 8.40625 117.281 10.2812 117.281 14V14.8125C117.281 18.5312 119.156 20.4062 122.031 20.4062Z" fill="black"/>
<path d="M102.938 22.4062V6.40625H106.219V9.6875C107.062 7.28125 108.844 6.23438 111.422 6.23438C112.156 6.23438 112.609 6.3125 112.781 6.35938V9.25C112.531 9.20312 111.891 9.125 111.141 9.125C107.922 9.125 106.359 10.6562 106.359 13.7344V22.4062H102.938Z" fill="black"/>
<path d="M83.7812 0H87.2031V9.70312C88.2812 7.14062 90.4219 5.89062 93.2812 5.89062C97.5 5.89062 100.188 8.59375 100.188 14.1406V14.6719C100.188 20.2031 97.5 22.9219 93.2812 22.9219C90.4219 22.9219 88.2812 21.6875 87.2031 19.125V22.4062H83.7812V0ZM91.9531 8.40625C89.0781 8.40625 87.2031 10.2812 87.2031 14V14.8125C87.2031 18.5312 89.0781 20.4062 91.9531 20.4062C94.8125 20.4062 96.6875 18.5312 96.6875 14.8125V14C96.6875 10.2812 94.8125 8.40625 91.9531 8.40625Z" fill="black"/>
<path d="M53.1875 22.4062L47.7969 6.40625H51.4062L55.1875 18.75L59.1562 6.40625H62.3125L66.125 18.6719L69.875 6.40625H73.3438L67.9688 22.4062H64.4219L60.6406 10.2188L56.7344 22.4062H53.1875Z" fill="black"/>
<path d="M39.0312 22.9375C33.6875 22.9375 30.7188 19.9531 30.7188 14.6562V14.1562C30.7188 8.82812 33.6719 5.875 38.9688 5.875C44.1406 5.875 46.7656 8.71875 46.7656 14.0312V15.1562H34.2188C34.2812 18.7188 36.1406 20.5469 39.0312 20.5469C41.6406 20.5469 43 19.0469 43.2188 17.2656H46.6406C46.3906 20.2812 44.0625 22.9375 39.0312 22.9375ZM34.25 12.9531H43.2969V12.9375C43.1719 9.67188 41.6406 8.25 38.9531 8.25C36.2344 8.25 34.5 9.75 34.25 12.9531Z" fill="black"/>
<path d="M19.875 22.4062V6.40625H23.1562V9.6875C24 7.28125 25.7812 6.23438 28.3594 6.23438C29.0938 6.23438 29.5469 6.3125 29.7188 6.35938V9.25C29.4688 9.20312 28.8281 9.125 28.0781 9.125C24.8594 9.125 23.2969 10.6562 23.2969 13.7344V22.4062H19.875Z" fill="black"/>
<path d="M16.4062 0V22.4062H12.9844V19.125C11.9062 21.6875 9.76562 22.9219 6.90625 22.9219C2.6875 22.9219 0 20.2031 0 14.6719V14.1406C0 8.59375 2.6875 5.89062 6.90625 5.89062C9.76562 5.89062 11.9062 7.14062 12.9844 9.70312V0H16.4062ZM8.23438 8.40625C5.375 8.40625 3.5 10.2812 3.5 14V14.8125C3.5 18.5312 5.375 20.4062 8.23438 20.4062C11.1094 20.4062 12.9844 18.5312 12.9844 14.8125V14C12.9844 10.2812 11.1094 8.40625 8.23438 8.40625Z" fill="black"/>
</svg>
